<svg xmlns="http://www.w3.org/2000/svg" viewBox="0 0 32 32">
  <g fill="none">
    <path fill="#FFFFFF" d="M30 14.6c-1-1.2-3-1.6-4.7-1.6h-1.6l-.2-.6c-.3-1-1-1.4-2-1.4h-15c-1 0-1.7.5-2 1.3 0 .4-.5 1.8-.5 6 0 4 2.4 8 3 8.7H2c-.5 0-1 .3-1 .8 0 .4 0 .8.5 1l3.3 1.5c2.4.7 4.7.7 9.7.7h1.2c4.2 0 6.3 0 8.5-.6 1-.3 3-1.4 3.3-1.5.4-.5.6-1 .5-1.4 0-.5-.5-.8-1-.8h-6c.3-.5 1-1.5 1.6-2.8l3-.4c3-.8 5-2.6 5.3-5.2 0-2-.6-3.5-1-4.2zm-2 3.7c-.2 2-2 2.5-3 2.6h-1.4c.3-1 .4-2 .4-3v-2h1.4c1 0 2 0 2.3.4.4.4.5 1 .4 1.7zM13 7c1-1 2.5-2 3-3.2.3-1-.8-2.3-1.6-2.8 0 1-.6 1.7-1.4 2.3L9.6 6C8.2 7.3 8 9 8 9h4s.3-1.2 1-2zm8-1c0-2-2-4-2-4s.4 1 .2 2c-.3 1-1.2 1.7-2 2.6C16 7.6 16 9 16 9h4s1-1 1-3z"/>
    <path d="M0 0h32v32H0z"/>
  </g>
</svg>
