<svg xmlns="http://www.w3.org/2000/svg" width="91" height="36" viewBox="0 0 91 36">
  <g fill="none">
    <path fill="#66F" d="M30.935 12.788c-5.7-3.464-13.412.342-8.422-4.75 5.398-5.51 7.938-1.994 8.543.605.576 2.477 5.352.59 4.158-3.936C34.38 1.547 29.13.052 25.458.693c-4.76.83-13.366 7.573-13.147 17.184.27 11.59 5.44 17.033 11.56 17.785 12.38 1.53 15.49-17.757 7.07-22.874zm-1.357 10.567c-.832 6.464-5.445 6.56-8.453 3.384-2.823-2.98-4.33-9.46-.2-9.79 5.188-.42 9.12 2.76 8.653 6.4z"/>
    <path fill="#404080" d="M49.928 15.834c-.432-3.11-1.942-8.995-3.02-11.963-1.08-2.96 1.63-.8 3.034-.19 1.403.61 2.074 3.33 2.905 7.52.773 3.88.516 1.8 1.994-1.06 2.32-4.49 1.84-4.34 4.29-4.29 1.72.04 3.13.05 1.26 2.37-1.87 2.32-3.63 5.91-4.48 9.44-.853 3.53-2.01 3.54-3.93 3.18-2.82-.53-1.46-.844-2.04-4.993zm19.63-10.496c10.13-.806 7.306.014 7.256 2.937-.05 2.922-.302 2.52-5.494 2.064-3.074-.36-3.426 0-4.485 1.72-1.06 1.73 1.058.79 4.182 2.202 3.125 1.413 4.436.605 3.428 3.38-.806 2.573-1.59 2.456-5.645.404-1.71-.866-4.483-1.615-5.292-.15-.81 1.462-3.23 2.27 3.222 3.81 6.452 1.545 6.124 2.445 4.586 4.16-1.323 1.48-.3 2.32-3.222 1.363-2.923-.96-6.932-3.34-8.92-3.887-2.896-.794-2.525-2.17-1.26-4.643 1.262-2.47 1.715-3.93 4.64-8.73 2.922-4.793.37-4.113 7.004-4.642zm-21.773 9.334c-.1-3.484-1.933-12.878-7.358-14.228-4.77-1.186-4.687 2.977-3.074 11.075 1.612 8.09 2.062 12.18 5.695 11.07 3.634-1.11 4.838-4.44 4.737-7.92zm-4.275 3.78c-1.513 1.48-1.65-2.194-2.48-6.304-.828-4.11-2.025-9.85.955-7.015 2.07 1.972 3.483 11.406 1.525 13.32zm45.437-6.907c-2.1-3.13-4.223-4.34-7.597-5.45-3.375-1.11-1.917 1.465-2.82 5.36-1.055 4.55-.453 6.08-3.527 11.542-3.145 5.59-3.3 4.617 0 6.155 2.923 1.363 2.585.092 4.686-4.59 1.73-3.872 2.04-2.296 2.67-.26 1.11 3.588 1 5.32 3.65 4.467 2.64-.86 2.11-1.9 1.36-3.1-.52-.84-.6-1.32-1.25-2.79-1.02-2.29 2.1-.54 3.74-2.82 1.92-2.66.8-5.966-.92-8.528zm-5.94 6.8c-2.137-.54-1.24-1.736-.812-3.657.723-3.234 1.03-3.9 3.235-1.847 1.924 1.79 2.626 6.78-2.422 5.51zM18.647 2.052c.03 1.187-1.332 1.898-3.08 1.945-1.75.048-3.223-.587-3.255-1.774-.03-1.187 1.353-2.4 3.374-2.2 2.02.2 2.93.842 2.962 2.03zM12.93 7.495c.03 1.153-1.098 2.34-3.172 2.132-2.074-.21-3.003-.853-3.034-2.014-.03-1.16.684-2.14 2.923-2.167 2.238-.025 3.25.896 3.282 2.05zm-4.337 5.56c-.13 1.613-1.233 2.01-2.855 2.052-1.623.04-2.99-.645-3.023-1.9-.032-1.256 1.232-2.01 2.855-2.052 1.623-.04 3.15.288 3.023 1.9zm-2.086 7.15c.24 1.42-.866 2.6-2.675 3.142-1.36.408-3.527-.574-3.807-1.996-.208-1.05.754-2.72 2.965-2.79 2.21-.07 3.276.23 3.516 1.65zm6.81 11.303c.14 2.813-2.31 3.91-5.205 4.387-2.213.368-5.232-.367-5.67-2.88-.318-1.796.663-4.82 4.575-5.06 5.132-.315 6.198 1.55 6.3 3.553z"/>
  </g>
</svg>