<svg xmlns="http://www.w3.org/2000/svg" width="48" height="48" viewBox="0 0 48 48">
  <path fill="#FFF" d="M24 0C10.75 0 0 10.74 0 24c0 9.83 5.9 18.27 14.37 21.98-.07-1.67 0-3.7.4-5.5.48-1.96 3.1-13.1 3.1-13.1s-.76-1.52-.76-3.8c0-3.54 2.1-6.2 4.7-6.2 2.2 0 3.25 1.64 3.25 3.6 0 2.2-1.4 5.48-2.12 8.52-.6 2.55 1.3 4.63 3.8 4.63 4.55 0 7.6-5.84 7.6-12.76 0-5.26-3.53-9.2-10-9.2-7.25 0-11.8 5.43-11.8 11.5 0 2.08.6 3.56 1.6 4.7.44.53.5.73.33 1.34-.1.5-.4 1.5-.5 2-.17.6-.67.84-1.2.6-3.35-1.35-4.9-5.05-4.9-9.2 0-6.8 5.75-15 17.15-15 9.18 0 15.2 6.66 15.2 13.78 0 9.42-5.23 16.45-12.94 16.45-2.6 0-5.03-1.4-5.87-3l-1.68 6.6c-.5 1.84-1.5 3.7-2.42 5.13 2.17.65 4.45 1 6.8 1 13.27 0 24-10.74 24-24S37.28 0 24 0"/>
</svg>
