<svg xmlns="http://www.w3.org/2000/svg" width="48" height="48" viewBox="0 0 48 48">
  <path fill="#FFF" d="M24 0c-6.52 0-7.34.03-9.9.14-2.55.12-4.3.53-5.82 1.12-1.58.6-2.92 1.43-4.25 2.77C2.7 5.36 1.87 6.7 1.26 8.28.66 9.8.26 11.55.14 14.1.04 16.66 0 17.48 0 24c0 6.52.03 7.34.14 9.9.12 2.55.53 4.3 1.12 5.82.6 1.58 1.43 2.92 2.77 4.25 1.33 1.34 2.67 2.16 4.25 2.77 1.53.6 3.27 1 5.82 1.12 2.56.1 3.38.14 9.9.14 6.52 0 7.34-.03 9.9-.14 2.55-.12 4.3-.53 5.82-1.12 1.58-.6 2.92-1.43 4.25-2.77 1.34-1.33 2.16-2.67 2.77-4.25.6-1.53 1-3.27 1.12-5.82.1-2.56.14-3.38.14-9.9 0-6.52-.03-7.34-.14-9.9-.12-2.55-.53-4.3-1.12-5.82-.6-1.58-1.43-2.92-2.77-4.25-1.33-1.34-2.67-2.16-4.25-2.77-1.53-.6-3.27-1-5.82-1.12C31.34.04 30.52 0 24 0zm0 4.32c6.4 0 7.17.03 9.7.14 2.34.1 3.6.5 4.45.83 1.12.4 1.92.92 2.76 1.8.88.8 1.4 1.6 1.8 2.72.37.84.76 2.1.87 4.45.1 2.52.14 3.3.14 9.7 0 6.4-.03 7.16-.14 9.7-.1 2.33-.5 3.6-.83 4.44-.43 1.13-.95 1.93-1.8 2.77-.83.85-1.63 1.37-2.75 1.8-.84.34-2.1.73-4.45.84-2.53.1-3.3.15-9.7.15-6.4 0-7.17-.03-9.7-.14-2.34-.1-3.6-.5-4.45-.82-1.12-.43-1.92-.95-2.76-1.8-.83-.83-1.35-1.63-1.8-2.75-.32-.84-.7-2.1-.82-4.45-.1-2.52-.14-3.3-.14-9.7 0-6.4.03-7.16.14-9.7.1-2.33.5-3.6.83-4.44.44-1.12.96-1.92 1.8-2.76.84-.85 1.64-1.37 2.76-1.8.83-.34 2.1-.73 4.44-.84 2.54-.1 3.3-.14 9.7-.14zm0 7.36c-6.8 0-12.32 5.5-12.32 12.32 0 6.8 5.5 12.32 12.32 12.32 6.8 0 12.32-5.5 12.32-12.32 0-6.8-5.5-12.32-12.32-12.32zM24 32c-4.42 0-8-3.58-8-8s3.58-8 8-8 8 3.58 8 8-3.58 8-8 8zm15.7-20.8c0 1.58-1.3 2.87-2.9 2.87-1.58 0-2.87-1.3-2.87-2.88 0-1.6 1.3-2.9 2.88-2.9 1.6 0 2.9 1.3 2.9 2.9z"/>
</svg>
